# xmcd
#
# Track frame offsets: 
#        150
#        12842
#        25463
#
# Disc length: 486 seconds
#
# Revision: 0
# Processed by: cddbd v1.4PL0 Copyright (c) Steve Scherf et al.
# Submitted via: ExactAudioCopy v0.95a3
#
DISCID=1a01e403
DTITLE=Pawel Szymanski - 
DYEAR=2000
DGENRE=Blues
TTITLE0=Salty Dog Blues
TTITLE1=Okno
TTITLE2=Bye - Bye Baby Blues
EXTD=
EXTT0=
EXTT1=
EXTT2=
PLAYORDER=
